<svg width="679.87561" height="824.43842" viewBox="0 0 179.88375 218.13266" id="svg5" xmlns="http://www.w3.org/2000/svg"><g id="layer1" style="display:inline" transform="translate(-21.197672,-65.232464)"><path id="path736" style="fill:#666;fill-opacity:1;stroke:none;stroke-width:.529168;stroke-opacity:.8;stop-color:#000000" d="m79.393245 88.387671c1.275863 17.814419 7.335646 26.747849 19.710942 37.429759a33.034958 33.034958.0 00-.312643 2.77502 33.034958 33.034958.0 0011.290266 24.85482h-5.15524c-5.751852.0-10.382312 4.63046-10.382312 10.38231v59.77723 11.01173 6.36602 4.01629 15.82436a12.9032 12.9032.0 00-4.338236 9.63662 12.9032 12.9032.0 0012.903608 12.90309 12.9032 12.9032.0 0012.90309-12.90309 12.9032 12.9032.0 00-4.33824-9.63611v-15.82487h40.30399v30.02142 3.6711 4.67155h3.7822v-4.67155h2.89182v4.67155h3.78219v-4.67155h2.89234v4.67155h3.78167v-4.67155-3.6711-30.02142-3.23753-7.14478-9.08989h17.68936v4.90927l7.1417-4.12327 7.14168-4.12326-7.14168-4.12326-7.1417-4.12326v4.90977h-17.68936v-55.02506c0-5.75185-4.63046-10.38231-10.38231-10.38231h-5.15266a33.034958 33.034958.0 0011.2877-24.85482 33.034958 33.034958.0 00-.22377-3.63389c11.70979-10.30891 17.49338-19.23772 18.73478-36.570889-6.92798 10.0722-14.50358 16.252739-28.59361 16.471349a33.034958 33.034958.0 00-22.95208-9.301761 33.034958 33.034958.0 00-22.69267 9.302791C94.305672 104.96429 86.506373 98.729046 79.393245 88.387671zm52.433495 25.857339a14.347565 14.347565.0 0114.34744 14.34744 14.347565 14.347565.0 01-14.34744 14.34745 14.347565 14.347565.0 01-14.34796-14.34745 14.347565 14.347565.0 0114.34796-14.34744zm0 54.93308a5.1912074 5.1912074.0 015.19089 5.19141 5.1912074 5.1912074.0 01-5.19089 5.1909 5.1912074 5.1912074.0 01-5.19142-5.1909 5.1912074 5.1912074.0 015.19142-5.19141zm0 23.9112a5.1912074 5.1912074.0 015.19089 5.19142 5.1912074 5.1912074.0 01-5.19089 5.19089 5.1912074 5.1912074.0 01-5.19142-5.19089 5.1912074 5.1912074.0 015.19142-5.19142zm0 23.9112a5.1912074 5.1912074.0 015.19089 5.1909 5.1912074 5.1912074.0 01-5.19089 5.19142 5.1912074 5.1912074.0 01-5.19142-5.19142 5.1912074 5.1912074.0 015.19142-5.1909zm-28.71711 48.78927a4.6718483 4.6718483.0 014.67155 4.67207 4.6718483 4.6718483.0 01-4.67155 4.67155 4.6718483 4.6718483.0 01-4.672069-4.67155 4.6718483 4.6718483.0 014.672069-4.67207z"/><circle style="fill:#ff2a7f;fill-opacity:1;stroke:none;stroke-width:.529167;stroke-opacity:.8;stop-color:#000000" id="circle2942" cx="131.82655" cy="128.59242" r="5.1912074"/><path style="fill:#666;fill-opacity:1;stroke:none;stroke-width:.357214;stroke-opacity:.8;stop-color:#000000" id="path3032" d="m109.28323 25.859537h-7.18949-7.18948l3.594741-6.226275 3.594739-6.226275 3.59474 6.226275z" transform="matrix(1.4813705,0,0,1.4813705,-19.4121,45.371749)"/><path id="path2" style="opacity:1;fill:#fff;stroke-width:.413411" d="m29.875695 213.06709c-1.20824.0-2.196765.98852-2.196765 2.19677v2.19677c0 1.20825.988525 2.19676 2.196765 2.19676h2.196765v3.09283h-9.577193v2.20194h1.376661v5.2343a3.75576 3.75576.0 00-2.674256 3.59462 3.75576 3.75576.0 003.755327 3.75584 3.75576 3.75576.0 003.755843-3.75584 3.75576 3.75576.0 00-2.634982-3.58376v-5.24516h5.9986v16.2202c-2.77348 1.38673-4.39353 3.04809-4.39353 4.84673.0 9.22662 4.750519 17.32748 11.917619 22.0369l-2.937805 9.63817c-.865 2.81467 1.249324 5.67097 4.201294 5.67097h26.361698c2.95197.0 5.066284-2.8563 4.201294-5.67097l-2.938322-9.63817c7.16711-4.70942 11.917618-12.81028 11.917618-22.0369.0-1.79864-1.62006-3.46-4.39353-4.84673v-21.51497h2.196765c1.20825.0 2.196765-.98851 2.196765-2.19676v-2.19677c0-1.20825-.988515-2.19677-2.196765-2.19677zm24.164933 28.55847c10.5859.0 19.167306 1.96331 19.167306 4.39353s-8.581406 4.39353-19.167306 4.39353c-10.58589.0-19.166788-1.96331-19.166788-4.39353s8.580898-4.39353 19.166788-4.39353z"/></g></svg>