<?xml version="1.0" encoding="UTF-8" standalone="no"?>
<!-- Created with Inkscape (http://www.inkscape.org/) -->

<svg
   width="679.87561"
   height="824.43842"
   viewBox="0 0 179.88375 218.13266"
   version="1.1"
   id="svg5"
   inkscape:version="1.4 (86a8ad7, 2024-10-11)"
   sodipodi:docname="zpp.svg"
   xmlns:inkscape="http://www.inkscape.org/namespaces/inkscape"
   xmlns:sodipodi="http://sodipodi.sourceforge.net/DTD/sodipodi-0.dtd"
   xmlns="http://www.w3.org/2000/svg"
   xmlns:svg="http://www.w3.org/2000/svg">
  <sodipodi:namedview
     id="namedview7"
     pagecolor="#ffffff"
     bordercolor="#666666"
     borderopacity="1.0"
     inkscape:showpageshadow="false"
     inkscape:pageopacity="0"
     inkscape:pagecheckerboard="0"
     inkscape:deskcolor="#ffffff"
     inkscape:document-units="px"
     showgrid="false"
     inkscape:zoom="0.59465222"
     inkscape:cx="-110.14842"
     inkscape:cy="389.30318"
     inkscape:window-width="1920"
     inkscape:window-height="1057"
     inkscape:window-x="-8"
     inkscape:window-y="-8"
     inkscape:window-maximized="1"
     inkscape:current-layer="layer1" />
  <defs
     id="defs2" />
  <g
     inkscape:label="Layer 1"
     inkscape:groupmode="layer"
     id="layer1"
     style="display:inline"
     transform="translate(-21.197672,-65.232464)">
    <path
       id="path736"
       style="fill:#666666;fill-opacity:1;stroke:none;stroke-width:0.529168;stroke-opacity:0.8;stop-color:#000000"
       d="m 79.393245,88.387671 c 1.275863,17.814419 7.335646,26.747849 19.710942,37.429759 a 33.034958,33.034958 0 0 0 -0.312643,2.77502 33.034958,33.034958 0 0 0 11.290266,24.85482 h -5.15524 c -5.751852,0 -10.382312,4.63046 -10.382312,10.38231 v 59.77723 11.01173 6.36602 4.01629 15.82436 a 12.9032,12.9032 0 0 0 -4.338236,9.63662 12.9032,12.9032 0 0 0 12.903608,12.90309 12.9032,12.9032 0 0 0 12.90309,-12.90309 12.9032,12.9032 0 0 0 -4.33824,-9.63611 v -15.82487 h 40.30399 v 30.02142 3.6711 4.67155 h 3.7822 v -4.67155 h 2.89182 v 4.67155 h 3.78219 v -4.67155 h 2.89234 v 4.67155 h 3.78167 v -4.67155 -3.6711 -30.02142 -3.23753 -7.14478 -9.08989 h 17.68936 v 4.90927 l 7.1417,-4.12327 7.14168,-4.12326 -7.14168,-4.12326 -7.1417,-4.12326 v 4.90977 h -17.68936 v -55.02506 c 0,-5.75185 -4.63046,-10.38231 -10.38231,-10.38231 h -5.15266 a 33.034958,33.034958 0 0 0 11.2877,-24.85482 33.034958,33.034958 0 0 0 -0.22377,-3.63389 c 11.70979,-10.30891 17.49338,-19.23772 18.73478,-36.570889 -6.92798,10.0722 -14.50358,16.252739 -28.59361,16.471349 a 33.034958,33.034958 0 0 0 -22.95208,-9.301761 33.034958,33.034958 0 0 0 -22.69267,9.302791 C 94.305672,104.96429 86.506373,98.729046 79.393245,88.387671 Z m 52.433495,25.857339 a 14.347565,14.347565 0 0 1 14.34744,14.34744 14.347565,14.347565 0 0 1 -14.34744,14.34745 14.347565,14.347565 0 0 1 -14.34796,-14.34745 14.347565,14.347565 0 0 1 14.34796,-14.34744 z m 0,54.93308 a 5.1912074,5.1912074 0 0 1 5.19089,5.19141 5.1912074,5.1912074 0 0 1 -5.19089,5.1909 5.1912074,5.1912074 0 0 1 -5.19142,-5.1909 5.1912074,5.1912074 0 0 1 5.19142,-5.19141 z m 0,23.9112 a 5.1912074,5.1912074 0 0 1 5.19089,5.19142 5.1912074,5.1912074 0 0 1 -5.19089,5.19089 5.1912074,5.1912074 0 0 1 -5.19142,-5.19089 5.1912074,5.1912074 0 0 1 5.19142,-5.19142 z m 0,23.9112 a 5.1912074,5.1912074 0 0 1 5.19089,5.1909 5.1912074,5.1912074 0 0 1 -5.19089,5.19142 5.1912074,5.1912074 0 0 1 -5.19142,-5.19142 5.1912074,5.1912074 0 0 1 5.19142,-5.1909 z m -28.71711,48.78927 a 4.6718483,4.6718483 0 0 1 4.67155,4.67207 4.6718483,4.6718483 0 0 1 -4.67155,4.67155 4.6718483,4.6718483 0 0 1 -4.672069,-4.67155 4.6718483,4.6718483 0 0 1 4.672069,-4.67207 z" />
    <circle
       style="fill:#ff2a7f;fill-opacity:1;stroke:none;stroke-width:0.529167;stroke-opacity:0.8;stop-color:#000000"
       id="circle2942"
       cx="131.82655"
       cy="128.59242"
       r="5.1912074" />
    <path
       sodipodi:type="star"
       style="fill:#666666;fill-opacity:1;stroke:none;stroke-width:0.357214;stroke-opacity:0.8;stop-color:#000000"
       id="path3032"
       inkscape:flatsided="false"
       sodipodi:sides="3"
       sodipodi:cx="102.09374"
       sodipodi:cy="21.708687"
       sodipodi:r1="8.3016996"
       sodipodi:r2="4.1508503"
       sodipodi:arg1="0.52359878"
       sodipodi:arg2="1.5707963"
       inkscape:rounded="0"
       inkscape:randomized="0"
       d="m 109.28323,25.859537 -7.18949,0 -7.18948,0 3.594741,-6.226275 3.594739,-6.226275 3.59474,6.226275 z"
       inkscape:transform-center-y="-3.0744735"
       transform="matrix(1.4813705,0,0,1.4813705,-19.4121,45.371749)" />
    <path
       id="path2"
       style="opacity:1;fill:#ffffff;stroke-width:0.413411"
       d="m 29.875695,213.06709 c -1.20824,0 -2.196765,0.98852 -2.196765,2.19677 v 2.19677 c 0,1.20825 0.988525,2.19676 2.196765,2.19676 h 2.196765 v 3.09283 h -9.577193 v 2.20194 h 1.376661 v 5.2343 a 3.75576,3.75576 0 0 0 -2.674256,3.59462 3.75576,3.75576 0 0 0 3.755327,3.75584 3.75576,3.75576 0 0 0 3.755843,-3.75584 3.75576,3.75576 0 0 0 -2.634982,-3.58376 v -5.24516 h 5.9986 v 16.2202 c -2.77348,1.38673 -4.39353,3.04809 -4.39353,4.84673 0,9.22662 4.750519,17.32748 11.917619,22.0369 l -2.937805,9.63817 c -0.865,2.81467 1.249324,5.67097 4.201294,5.67097 h 26.361698 c 2.95197,0 5.066284,-2.8563 4.201294,-5.67097 l -2.938322,-9.63817 c 7.16711,-4.70942 11.917618,-12.81028 11.917618,-22.0369 0,-1.79864 -1.62006,-3.46 -4.39353,-4.84673 v -21.51497 h 2.196765 c 1.20825,0 2.196765,-0.98851 2.196765,-2.19676 v -2.19677 c 0,-1.20825 -0.988515,-2.19677 -2.196765,-2.19677 z m 24.164933,28.55847 c 10.5859,0 19.167306,1.96331 19.167306,4.39353 0,2.43022 -8.581406,4.39353 -19.167306,4.39353 -10.58589,0 -19.166788,-1.96331 -19.166788,-4.39353 0,-2.43022 8.580898,-4.39353 19.166788,-4.39353 z" />
  </g>
</svg>
